<svg xmlns="http://www.w3.org/2000/svg" viewBox="0 0 500 500"><g id="freepik--light-bulb--inject-4"><g id="freepik--Bulb--inject-4"><circle cx="169.86" cy="198.83" r="157.22" style="fill:#FFC100;opacity:0.2"></circle><circle cx="169.86" cy="198.83" r="133.39" transform="translate(-90.84 178.34) rotate(-45)" style="fill:#FFC100;opacity:0.2"></circle><circle cx="169.86" cy="198.83" r="115.05" transform="translate(-90.84 178.34) rotate(-45)" style="fill:#FFC100;opacity:0.2"></circle><circle cx="169.86" cy="198.83" r="100.69" transform="translate(-90.84 178.34) rotate(-45)" style="fill:#FFC100;opacity:0.2"></circle><g id="freepik--bulb--inject-4"><g id="freepik--Socket--inject-4"><path d="M214,334.34c-7.33-.94-9.65-6.46-5.17-12.34s14-9.88,21.36-8.95,9.64,6.46,5.17,12.34S221.33,335.27,214,334.34Z" style="fill:#263238"></path><path d="M237.58,320.57l-2.45,1a8.09,8.09,0,0,0-4.45-1.79c-6-.76-13.73,2.5-17.37,7.28a8.11,8.11,0,0,0-1.84,4.43l-2.45,1,4.68,3.28h0a8.78,8.78,0,0,0,3.8,1.31c6,.76,13.74-2.5,17.38-7.28a8.82,8.82,0,0,0,1.73-3.63h0Z" style="fill:#FFC100"></path><path d="M237.58,320.57l-2.45,1a8.09,8.09,0,0,0-4.45-1.79c-6-.76-13.73,2.5-17.37,7.28a8.11,8.11,0,0,0-1.84,4.43l-2.45,1,4.68,3.28h0a8.78,8.78,0,0,0,3.8,1.31c6,.76,13.74-2.5,17.38-7.28a8.82,8.82,0,0,0,1.73-3.63h0Z" style="opacity:0.4"></path><ellipse cx="219.24" cy="316.8" rx="24.22" ry="13.98" transform="translate(-104.83 108.47) rotate(-22.58)" style="fill:#FFC100"></ellipse><ellipse cx="217.87" cy="313.5" rx="25.12" ry="14.5" transform="translate(-103.67 107.69) rotate(-22.58)" style="fill:#FFC100"></ellipse><ellipse cx="217.87" cy="313.5" rx="25.12" ry="14.5" transform="translate(-103.67 107.69) rotate(-22.58)" style="opacity:0.2"></ellipse><ellipse cx="216.4" cy="309.96" rx="25.76" ry="14.87" transform="translate(-102.43 106.85) rotate(-22.58)" style="fill:#FFC100"></ellipse><ellipse cx="214.93" cy="306.42" rx="26.39" ry="15.24" transform="translate(-101.18 106.01) rotate(-22.58)" style="fill:#FFC100"></ellipse><ellipse cx="214.93" cy="306.42" rx="26.39" ry="15.24" transform="translate(-101.18 106.01) rotate(-22.58)" style="opacity:0.2"></ellipse><ellipse cx="213.46" cy="302.89" rx="27.03" ry="15.6" transform="translate(-99.94 105.18) rotate(-22.58)" style="fill:#FFC100"></ellipse><ellipse cx="211.98" cy="299.35" rx="27.66" ry="15.97" transform="translate(-98.69 104.34) rotate(-22.58)" style="fill:#37474f"></ellipse></g><path d="M136.37,117.48a87.06,87.06,0,0,0-47,113.82c26.54,63.81,83.6,52.51,94.3,78.23,1.7,4.1,6.11,7.07,12.83,8,13.43,1.75,31-5.56,39.22-16.31,4.12-5.38,5.12-10.61,3.42-14.7h0c-10.7-25.73,37.55-58.22,11-122A87.06,87.06,0,0,0,136.37,117.48Z" style="fill:#FFC100"></path><path d="M136.37,117.48a87.06,87.06,0,0,0-47,113.82c26.54,63.81,83.6,52.51,94.3,78.23,1.7,4.1,6.11,7.07,12.83,8,13.43,1.75,31-5.56,39.22-16.31,4.12-5.38,5.12-10.61,3.42-14.7h0c-10.7-25.73,37.55-58.22,11-122A87.06,87.06,0,0,0,136.37,117.48Z" style="fill:#fff;opacity:0.9;mix-blend-mode:screen"></path><path d="M190.77,132.92a13.72,13.72,0,0,0-2.12,2.85c-2.16,3.83-1.61,8.81.65,12.58,4.37,7.3,13.87,9,20.72,13.28a74.78,74.78,0,0,1,19.59,17.56c1.62,2.08,4.07,5.61,6.15,7.22a6.8,6.8,0,0,0,9.12-.63c2.43-3,2.42-7.54,1.59-10.79-5-19.27-14.34-31.33-29.33-41.51C209,127.93,198.5,125,190.77,132.92Z" style="fill:#fff"></path><circle cx="163.44" cy="182.6" r="62.09" transform="translate(-81.25 169.06) rotate(-45)" style="fill:#fff;opacity:0.6000000000000001"></circle><path d="M238.88,199.76a9.57,9.57,0,0,0,3.84,6.85,5.57,5.57,0,0,0,7.72-1.32,9,9,0,0,0,.93-8.55c-1.27-2.93-4.49-5.28-7.89-4.25C240.31,193.46,238.68,197,238.88,199.76Z" style="fill:#fff"></path><path d="M192,296.56c-6-9.44-11.08-13.75-26.3-15s-41-2-61-24.39c28.82,35.18,70.1,30.85,79,52.33,1.7,4.1,6.11,7.07,12.83,8a35.39,35.39,0,0,0,8.72-.05C201.46,311.45,195.71,302.43,192,296.56Z" style="fill:#FFC100;opacity:0.15"></path><path d="M224.15,283.17c-2.45-10.92-1.94-17.55,7.93-29.2s27.51-30.44,25.72-60.45c4.63,45.25-27.56,71.46-18.62,93,1.7,4.09.7,9.32-3.42,14.7a35.28,35.28,0,0,1-6.18,6.15C228,300.41,225.68,290,224.15,283.17Z" style="fill:#FFC100;opacity:0.15"></path></g></g><g id="freepik--Atom--inject-4"><circle cx="144.59" cy="175.4" r="13.41" transform="translate(-70.26 249.63) rotate(-69.56)" style="fill:#FFC100"></circle><path d="M146.58,184.07c-6.83,1.73-13.11-2.58-15.39-9a13.4,13.4,0,1,0,26-4.08C158.14,174.56,153.85,182.22,146.58,184.07Z" style="opacity:0.2"></path><path d="M153.1,193.5a13.41,13.41,0,1,1-18.95-.59A13.42,13.42,0,0,1,153.1,193.5Z" style="fill:#FFC100"></path><path d="M153.1,193.5a13.41,13.41,0,1,1-18.95-.59A13.42,13.42,0,0,1,153.1,193.5Z" style="fill:#fff;opacity:0.45"></path><path d="M145.32,211.35c-6.83,1.74-13.11-2.57-15.39-9a13.4,13.4,0,1,0,26-4.07C156.88,201.84,152.58,209.5,145.32,211.35Z" style="fill:#FFC100;opacity:0.2"></path><path d="M173.49,206.91a13.41,13.41,0,1,1-19-.59A13.41,13.41,0,0,1,173.49,206.91Z" style="fill:#FFC100"></path><path d="M173.49,206.91a13.41,13.41,0,1,1-19-.59A13.41,13.41,0,0,1,173.49,206.91Z" style="fill:#fff;opacity:0.15"></path><path d="M165.71,224.76c-6.84,1.74-13.11-2.58-15.39-9a13.4,13.4,0,1,0,26-4.07C177.27,215.25,173,222.91,165.71,224.76Z" style="fill:#FFC100;opacity:0.4"></path><path d="M196.1,196.05a13.41,13.41,0,1,1-18.95-.59A13.4,13.4,0,0,1,196.1,196.05Z" style="fill:#FFC100"></path><path d="M188.32,213.9c-6.83,1.74-13.11-2.58-15.39-9.05a13.4,13.4,0,1,0,26-4.08C199.89,204.39,195.59,212.05,188.32,213.9Z" style="opacity:0.2"></path><path d="M196.64,172.24a13.41,13.41,0,1,1-18.95-.59A13.41,13.41,0,0,1,196.64,172.24Z" style="fill:#FFC100"></path><path d="M196.64,172.24a13.41,13.41,0,1,1-18.95-.59A13.41,13.41,0,0,1,196.64,172.24Z" style="fill:#fff;opacity:0.45"></path><path d="M188.86,190.09c-6.83,1.74-13.11-2.58-15.39-9.05a13.4,13.4,0,1,0,26-4.07C200.42,180.58,196.12,188.24,188.86,190.09Z" style="fill:#FFC100;opacity:0.2"></path><path d="M191.72,183.88a10.64,10.64,0,1,1-15.05-.47A10.65,10.65,0,0,1,191.72,183.88Z" style="fill:#FFC100"></path><path d="M191.72,183.88a10.64,10.64,0,1,1-15.05-.47A10.65,10.65,0,0,1,191.72,183.88Z" style="fill:#fff;opacity:0.30000000000000004"></path><path d="M185.55,198.05c-5.43,1.38-10.41-2.05-12.23-7.19A10.65,10.65,0,1,0,194,187.63C194.73,190.5,191.32,196.58,185.55,198.05Z" style="fill:#FFC100;opacity:0.5"></path><circle cx="168.22" cy="170.2" r="16.1" transform="translate(-2.46 337.93) rotate(-89.84)" style="fill:#FFC100"></circle><circle cx="168.22" cy="170.2" r="16.1" transform="translate(-2.46 337.93) rotate(-89.84)" style="fill:#fff;opacity:0.15"></circle><path d="M170.61,180.6c-8.2,2.09-15.74-3.09-18.48-10.86a16.09,16.09,0,1,0,31.26-4.89C184.49,169.18,179.33,178.38,170.61,180.6Z" style="fill:#FFC100;opacity:0.4"></path><circle cx="165.04" cy="194.21" r="16.1" style="fill:#FFC100"></circle><path d="M167.44,204.61c-8.21,2.09-15.74-3.09-18.49-10.86a16.1,16.1,0,1,0,31.27-4.89C181.32,193.19,176.16,202.39,167.44,204.61Z" style="opacity:0.2"></path><circle cx="148.22" cy="189.72" r="10.65" transform="translate(-46.02 331.97) rotate(-88.22)" style="fill:#FFC100"></circle><circle cx="148.22" cy="189.72" r="10.65" transform="translate(-46.02 331.97) rotate(-88.22)" style="fill:#fff;opacity:0.30000000000000004"></circle><path d="M149.8,196.6c-5.43,1.38-10.41-2-12.22-7.18a10.64,10.64,0,1,0,20.67-3.24C159,189.05,155.57,195.13,149.8,196.6Z" style="fill:#FFC100;opacity:0.5"></path><path d="M272.33,279.61c-.8,0-1.61,0-2.43-.05a.89.89,0,1,1,.06-1.78,58.61,58.61,0,0,0,8.79-.32.89.89,0,1,1,.22,1.77A55.15,55.15,0,0,1,272.33,279.61ZM261,278.82h-.12c-2.81-.37-5.8-.86-8.88-1.46a.9.9,0,0,1,.34-1.76c3,.6,6,1.09,8.77,1.44a.9.9,0,0,1-.11,1.79Zm26.47-1.8a.88.88,0,0,1-.81-.53.89.89,0,0,1,.45-1.18,16.71,16.71,0,0,0,2.41-1.3,12,12,0,0,0,2-1.54,11.81,11.81,0,0,0,2-2.44A.9.9,0,1,1,295,271a13.82,13.82,0,0,1-2.3,2.8,13.36,13.36,0,0,1-2.24,1.75,19.23,19.23,0,0,1-2.63,1.43A.94.94,0,0,1,287.49,277Zm-44-1.61a.83.83,0,0,1-.22,0c-2.81-.7-5.73-1.49-8.67-2.35a.91.91,0,0,1-.61-1.11.89.89,0,0,1,1.11-.61c2.92.85,5.81,1.64,8.6,2.34a.89.89,0,0,1,.66,1.08A.9.9,0,0,1,243.46,275.41Zm-17.18-5a.9.9,0,0,1-.28,0c-2.77-.91-5.62-1.9-8.48-2.94a.9.9,0,0,1-.54-1.14.89.89,0,0,1,1.15-.54c2.84,1,5.68,2,8.43,2.92a.9.9,0,0,1,.57,1.13A.88.88,0,0,1,226.28,270.4Zm-16.83-6.08a.74.74,0,0,1-.32-.07c-2.73-1.06-5.53-2.2-8.31-3.37a.89.89,0,1,1,.69-1.65c2.77,1.17,5.56,2.29,8.27,3.36a.9.9,0,0,1,.51,1.16A.91.91,0,0,1,209.45,264.32Zm86.69-1.22a.9.9,0,0,1-.9-.85,26.34,26.34,0,0,0-2.05-8.36.89.89,0,0,1,.5-1.16.88.88,0,0,1,1.16.49,27.93,27.93,0,0,1,2.18,8.94.89.89,0,0,1-.85.94ZM193,257.4a1,1,0,0,1-.37-.07c-2.68-1.2-5.42-2.45-8.15-3.73a.89.89,0,0,1,.76-1.62c2.72,1.27,5.45,2.52,8.12,3.71a.89.89,0,0,1-.36,1.71Zm-16.2-7.6a.93.93,0,0,1-.4-.09q-2.47-1.22-5-2.48c-1-.51-2-1-3-1.57a.89.89,0,0,1,.84-1.58c1,.53,2,1,3,1.55q2.49,1.26,4.95,2.48a.88.88,0,0,1,.41,1.19A.89.89,0,0,1,176.75,249.8Zm113.18-3.29a.91.91,0,0,1-.76-.43c-1.43-2.33-3.12-4.78-5-7.29a.89.89,0,0,1,.17-1.25.9.9,0,0,1,1.26.17c1.94,2.55,3.67,5,5.13,7.43a.9.9,0,0,1-.3,1.23A.89.89,0,0,1,289.93,246.51Zm-129.06-4.95a.84.84,0,0,1-.43-.11q-4-2.17-7.86-4.29a.89.89,0,1,1,.87-1.56q3.8,2.1,7.84,4.28a.89.89,0,0,1,.37,1.21A.9.9,0,0,1,160.87,241.56Zm-15.63-8.71a.92.92,0,0,1-.45-.12c-2.57-1.51-5.16-3.06-7.69-4.61a.89.89,0,1,1,.93-1.52c2.52,1.54,5.1,3.08,7.66,4.58a.9.9,0,0,1,.32,1.23A.89.89,0,0,1,145.24,232.85Zm133.94-.62a.92.92,0,0,1-.67-.31c-1.23-1.4-2.54-2.85-3.91-4.3-.69-.74-1.4-1.49-2.13-2.24a.89.89,0,1,1,1.28-1.24c.74.75,1.45,1.5,2.16,2.25,1.37,1.47,2.7,2.93,3.95,4.35a.91.91,0,0,1-.68,1.49ZM130,223.52a.92.92,0,0,1-.48-.14c-2.51-1.59-5-3.24-7.52-4.88a.89.89,0,1,1,1-1.49c2.48,1.64,5,3.27,7.5,4.86a.9.9,0,0,1-.48,1.65Zm136.77-4.15a.85.85,0,0,1-.61-.25c-2.09-2-4.3-4-6.58-6a.9.9,0,0,1,1.19-1.34c2.29,2,4.52,4.07,6.62,6.07a.89.89,0,0,1,0,1.26A.86.86,0,0,1,266.74,219.37Zm-151.69-5.74a.86.86,0,0,1-.51-.16c-2.47-1.7-4.93-3.44-7.33-5.17a.9.9,0,1,1,1.05-1.45c2.38,1.72,4.84,3.45,7.29,5.15a.9.9,0,0,1,.23,1.25A.88.88,0,0,1,115.05,213.63Zm-14.52-10.47A.9.9,0,0,1,100,203c-2.41-1.82-4.79-3.67-7.1-5.49a.9.9,0,1,1,1.12-1.4c2.29,1.81,4.66,3.65,7.06,5.46a.89.89,0,0,1-.54,1.61ZM86.51,192a.9.9,0,0,1-.58-.21c-2.33-2-4.62-3.92-6.8-5.85a.9.9,0,0,1-.08-1.27.89.89,0,0,1,1.26-.07c2.17,1.92,4.45,3.88,6.77,5.82a.89.89,0,0,1-.57,1.58ZM73.12,180.16a.94.94,0,0,1-.62-.25c-2.23-2.12-4.38-4.24-6.39-6.31a.9.9,0,0,1,0-1.27.91.91,0,0,1,1.27,0c2,2.05,4.13,4.16,6.35,6.26a.91.91,0,0,1,0,1.27A.92.92,0,0,1,73.12,180.16ZM60.67,167.3A.87.87,0,0,1,60,167c-2.08-2.37-4-4.71-5.73-7A.9.9,0,0,1,55.69,159c1.7,2.22,3.6,4.53,5.65,6.87a.89.89,0,0,1-.67,1.48ZM49.89,153a.88.88,0,0,1-.76-.42,55.4,55.4,0,0,1-4.19-8.06.89.89,0,1,1,1.65-.68,54.38,54.38,0,0,0,4.06,7.8.89.89,0,0,1-.29,1.23A.9.9,0,0,1,49.89,153Zm-6.3-16.55a.89.89,0,0,1-.89-.85v-.11c0-.37,0-.74,0-1.09a14.65,14.65,0,0,1,2.12-7.9.9.9,0,0,1,1.52,1,12.75,12.75,0,0,0-1.85,6.94c0,.32,0,.65,0,1v.14a.89.89,0,0,1-.86.93Zm70-7.4a.9.9,0,0,1-.28,0c-2.89-1-5.75-1.85-8.51-2.66a.89.89,0,1,1,.5-1.71c2.78.81,5.67,1.71,8.57,2.67a.89.89,0,0,1,.57,1.13A.88.88,0,0,1,113.61,129.09Zm-17.17-5-.22,0c-3-.75-5.9-1.41-8.69-2a.89.89,0,0,1-.7-1,.9.9,0,0,1,1-.7c2.81.55,5.76,1.22,8.77,2a.89.89,0,0,1-.21,1.76Zm-44-1.71a.91.91,0,0,1-.82-.53.9.9,0,0,1,.46-1.18,31.55,31.55,0,0,1,8.9-2.24.88.88,0,0,1,1,.79.89.89,0,0,1-.78,1,29.74,29.74,0,0,0-8.39,2.1A.92.92,0,0,1,52.39,122.37Zm26.49-1.71h-.12c-3.11-.41-6.08-.66-8.82-.76a.9.9,0,1,1,.06-1.79c2.8.1,5.82.36,9,.77a.9.9,0,0,1,.78,1A.89.89,0,0,1,78.88,120.66Z" style="fill:#fff"></path><path d="M132.06,337.71a13.46,13.46,0,0,1-4.61-.8.89.89,0,0,1,.61-1.68,11.64,11.64,0,0,0,4,.69h0a15.2,15.2,0,0,0,4.21-.63l.27.85.19.88a17.15,17.15,0,0,1-4.67.69Zm12.43-4.7a.88.88,0,0,1-.73-.38.9.9,0,0,1,.21-1.25,50.44,50.44,0,0,0,5.52-4.56c.39-.36.78-.74,1.18-1.13a.89.89,0,0,1,1.25,1.28l-1.2,1.16a53.09,53.09,0,0,1-5.72,4.72A.86.86,0,0,1,144.49,333Zm-23.64-1.51a.87.87,0,0,1-.72-.36A32,32,0,0,1,116,323a.9.9,0,0,1,.54-1.15.89.89,0,0,1,1.14.55,30.54,30.54,0,0,0,3.9,7.72.89.89,0,0,1-.19,1.25A.88.88,0,0,1,120.85,331.5Zm36.46-10.88a.9.9,0,0,1-.68-1.47c1.78-2.14,3.6-4.51,5.42-7a.89.89,0,0,1,1.45,1c-1.84,2.56-3.69,5-5.5,7.14A.89.89,0,0,1,157.31,320.62Zm-42.76-5.7a.9.9,0,0,1-.88-.73c-.53-2.75-1-5.75-1.26-8.94a.89.89,0,0,1,1.78-.17c.3,3.13.72,6.08,1.24,8.77a.9.9,0,0,1-.71,1Zm53.26-8.78a.87.87,0,0,1-.49-.14.9.9,0,0,1-.26-1.24c1.55-2.4,3.12-4.95,4.67-7.58a.89.89,0,0,1,1.22-.32.9.9,0,0,1,.32,1.23c-1.56,2.65-3.15,5.22-4.71,7.64A.88.88,0,0,1,167.81,306.14Zm-55.07-9a.89.89,0,0,1-.89-.87c0-1.73-.08-3.53-.08-5.37,0-1.19,0-2.39,0-3.61a.91.91,0,0,1,.91-.88.89.89,0,0,1,.88.91c0,1.21,0,2.4,0,3.58,0,1.82,0,3.61.08,5.32a.89.89,0,0,1-.87.92Zm64.16-6.4a.8.8,0,0,1-.42-.11.88.88,0,0,1-.36-1.21c1.38-2.55,2.78-5.2,4.14-7.9a.9.9,0,0,1,1.6.81c-1.38,2.71-2.78,5.38-4.17,7.94A.89.89,0,0,1,176.9,290.74Zm-63.85-11.48H113a.9.9,0,0,1-.84-.95c.17-2.89.4-5.9.68-8.94a.91.91,0,0,1,1-.81.9.9,0,0,1,.81,1c-.28,3-.51,6-.68,8.89A.89.89,0,0,1,113.05,279.26Zm72-4.47a.92.92,0,0,1-.39-.09.9.9,0,0,1-.42-1.19c1.25-2.64,2.51-5.37,3.73-8.11a.89.89,0,1,1,1.63.73c-1.22,2.75-2.49,5.49-3.74,8.15A.91.91,0,0,1,185,274.79Zm7.29-16.34a.87.87,0,0,1-.35-.07.9.9,0,0,1-.48-1.17c1.14-2.71,2.28-5.49,3.38-8.26a.9.9,0,0,1,1.16-.51.91.91,0,0,1,.5,1.17c-1.1,2.78-2.24,5.57-3.39,8.29A.87.87,0,0,1,192.29,258.45Zm6.59-16.63a1.12,1.12,0,0,1-.31,0,.91.91,0,0,1-.53-1.16c1-2.77,2.07-5.59,3.05-8.39a.9.9,0,0,1,1.69.6c-1,2.8-2,5.64-3.06,8.42A.89.89,0,0,1,198.88,241.82Zm6-16.87a.88.88,0,0,1-.85-1.17c.93-2.8,1.86-5.66,2.74-8.5a.9.9,0,0,1,1.13-.59.89.89,0,0,1,.58,1.12c-.89,2.86-1.82,5.73-2.75,8.53A.89.89,0,0,1,204.83,225Zm5.34-17.07a.73.73,0,0,1-.25,0,.9.9,0,0,1-.61-1.11c.84-2.86,1.66-5.75,2.44-8.58a.89.89,0,0,1,1.1-.63.9.9,0,0,1,.62,1.1c-.78,2.85-1.6,5.74-2.44,8.61A.9.9,0,0,1,210.17,207.88Zm4.72-17.24-.22,0a.88.88,0,0,1-.64-1.08c.3-1.18.59-2.35.88-3.53.43-1.72.84-3.44,1.25-5.14a.89.89,0,1,1,1.74.41c-.41,1.71-.82,3.43-1.25,5.16-.29,1.18-.59,2.36-.89,3.54A.9.9,0,0,1,214.89,190.64Zm4.11-17.4-.19,0a.9.9,0,0,1-.68-1.07c.63-2.94,1.24-5.88,1.8-8.74a.89.89,0,1,1,1.75.34c-.56,2.88-1.17,5.83-1.8,8.78A.9.9,0,0,1,219,173.24Zm3.42-17.56h-.15a.9.9,0,0,1-.73-1c.51-2.94,1-5.91,1.42-8.8a.9.9,0,0,1,1-.76.91.91,0,0,1,.75,1c-.43,2.91-.91,5.89-1.42,8.85A.9.9,0,0,1,222.42,155.68ZM225.05,138h-.11a.9.9,0,0,1-.78-1c.37-3,.69-6,1-8.87a.9.9,0,0,1,1.79.17c-.27,2.9-.6,5.9-1,8.92A.89.89,0,0,1,225.05,138Zm1.64-17.81h-.06a.89.89,0,0,1-.84-.94c.18-3.06.3-6,.35-8.9a.88.88,0,0,1,.91-.88.89.89,0,0,1,.88.91c-.05,2.88-.17,5.9-.35,9A.89.89,0,0,1,226.69,120.18Zm-63.85-11.49a1,1,0,0,1-.43-.11.9.9,0,0,1-.36-1.21c1.47-2.7,3-5.32,4.43-7.81a.89.89,0,1,1,1.54.9c-1.46,2.48-2.94,5.09-4.4,7.76A.88.88,0,0,1,162.84,108.69ZM227,102.31a.89.89,0,0,1-.89-.87c-.1-3.1-.28-6.09-.55-8.86a.89.89,0,1,1,1.78-.18c.27,2.82.46,5.84.56,9a.91.91,0,0,1-.87.92Zm-55.05-9a.92.92,0,0,1-.48-.14.89.89,0,0,1-.27-1.24c1.69-2.61,3.39-5.11,5.06-7.43a.91.91,0,0,1,1.25-.21.9.9,0,0,1,.2,1.25c-1.65,2.3-3.34,4.77-5,7.36A.91.91,0,0,1,171.94,93.29Zm53.25-8.76a.9.9,0,0,1-.88-.72,59.12,59.12,0,0,0-2.24-8.51.89.89,0,0,1,.54-1.14.9.9,0,0,1,1.15.54,61.78,61.78,0,0,1,2.31,8.77.9.9,0,0,1-.71,1Zm-42.75-5.72a.88.88,0,0,1-.57-.2.9.9,0,0,1-.12-1.26c2.05-2.47,4.1-4.72,6.09-6.68A.89.89,0,0,1,189.09,72c-1.94,1.91-4,4.12-6,6.54A.9.9,0,0,1,182.44,78.81ZM218.9,67.94a.89.89,0,0,1-.72-.37,18.14,18.14,0,0,0-2-2.3,13,13,0,0,0-4.5-2.86.89.89,0,1,1,.61-1.68A14.65,14.65,0,0,1,217.43,64a18.29,18.29,0,0,1,2.19,2.54.88.88,0,0,1-.19,1.25A.93.93,0,0,1,218.9,67.94Zm-23.62-1.51a.89.89,0,0,1-.52-1.62A28,28,0,0,1,203,60.67a.89.89,0,0,1,.52,1.71h0a26.26,26.26,0,0,0-7.67,3.88A.9.9,0,0,1,195.28,66.43Z" style="fill:#fff"></path><path d="M84.82,252.85q-4.68,0-9-.18a.9.9,0,0,1,.08-1.79c2.84.12,5.82.19,8.87.19a.91.91,0,0,1,.91.89A.88.88,0,0,1,84.82,252.85Zm8.94-.16a.9.9,0,0,1,0-1.79c2.89-.1,5.88-.26,8.91-.46a.9.9,0,0,1,1,.84.89.89,0,0,1-.83.95c-3.05.2-6.06.36-9,.46ZM67,252.06h-.09c-3.14-.3-6.15-.7-8.93-1.18a.89.89,0,0,1,.3-1.76c2.74.47,5.71.86,8.8,1.16a.9.9,0,0,1,.81,1A.91.91,0,0,1,67,252.06Zm44.67-.54a.9.9,0,0,1-.09-1.79c2.93-.27,5.91-.59,8.88-.94a.9.9,0,0,1,1,.79.89.89,0,0,1-.78,1c-3,.35-6,.67-8.92.94Zm17.77-2.09a.89.89,0,0,1-.13-1.78c2.89-.41,5.86-.85,8.83-1.33a.89.89,0,1,1,.29,1.76c-3,.48-6,.93-8.87,1.34Zm-80-.5-.24,0a50.74,50.74,0,0,1-8.51-3.21.89.89,0,1,1,.79-1.6,49.59,49.59,0,0,0,8.21,3.09.89.89,0,0,1-.25,1.75Zm97.7-2.35a.89.89,0,0,1-.16-1.77c2.66-.49,5.39-1,8.11-1.55l.66-.13a.89.89,0,0,1,.36,1.75l-.66.14c-2.74.54-5.48,1.06-8.15,1.55Zm17.56-3.45a.89.89,0,0,1-.18-1.77c3-.61,5.91-1.25,8.71-1.92a.9.9,0,0,1,1.08.67.89.89,0,0,1-.67,1.07c-2.81.67-5.76,1.32-8.76,1.93ZM33.8,240.57a.92.92,0,0,1-.67-.29l-.11-.13a14,14,0,0,1-3.63-8.46.9.9,0,0,1,1.79-.11A12.18,12.18,0,0,0,34.37,239l.09.1a.9.9,0,0,1-.06,1.26A.88.88,0,0,1,33.8,240.57ZM182,239a.9.9,0,0,1-.24-1.76c1-.26,1.94-.54,2.89-.82,1.94-.51,3.84-1,5.74-1.54a.89.89,0,1,1,.47,1.72c-1.9.53-3.81,1-5.73,1.55l-2.9.82A.85.85,0,0,1,182,239Zm17.23-4.82a.9.9,0,0,1-.25-1.76c2.86-.84,5.73-1.72,8.54-2.61a.9.9,0,0,1,.54,1.71c-2.82.89-5.7,1.77-8.58,2.62A.73.73,0,0,1,199.25,234.17Zm17.06-5.39a.89.89,0,0,1-.84-.61A.9.9,0,0,1,216,227c2.82-.95,5.66-1.93,8.43-2.93a.89.89,0,0,1,1.15.54.9.9,0,0,1-.54,1.14c-2.79,1-5.64,2-8.47,2.95A.93.93,0,0,1,216.31,228.78Zm-184-4.85a.85.85,0,0,1-.4-.1.88.88,0,0,1-.39-1.2,35.79,35.79,0,0,1,5.26-7.47.89.89,0,0,1,1.26-.08.9.9,0,0,1,.07,1.27,34.23,34.23,0,0,0-5,7.09A.9.9,0,0,1,32.32,223.93Zm200.83-1.21a.9.9,0,0,1-.32-1.73c2.8-1.08,5.6-2.18,8.3-3.29a.89.89,0,1,1,.68,1.65c-2.72,1.12-5.52,2.23-8.34,3.31A.87.87,0,0,1,233.15,222.72Zm16.56-6.8a.91.91,0,0,1-.82-.53.89.89,0,0,1,.46-1.18c2.76-1.22,5.5-2.47,8.12-3.71a.89.89,0,1,1,.76,1.62c-2.63,1.25-5.38,2.5-8.16,3.72A.94.94,0,0,1,249.71,215.92ZM43.88,210.43a.9.9,0,0,1-.58-1.58c2.12-1.82,4.52-3.68,7.12-5.54a.89.89,0,1,1,1,1.45c-2.56,1.83-4.91,3.66-7,5.45A.93.93,0,0,1,43.88,210.43Zm222-2.19a.88.88,0,0,1-.79-.48.9.9,0,0,1,.38-1.21c2.72-1.39,5.36-2.81,7.86-4.22a.89.89,0,0,1,.87,1.56c-2.51,1.42-5.17,2.85-7.91,4.26A1,1,0,0,1,265.87,208.24ZM58.38,200a.89.89,0,0,1-.47-1.65c2.43-1.52,5-3.07,7.73-4.58a.89.89,0,0,1,1.22.34.9.9,0,0,1-.34,1.22c-2.68,1.5-5.25,3-7.66,4.54A.94.94,0,0,1,58.38,200Zm223.07-.52a.89.89,0,0,1-.48-1.65c2.62-1.65,5.11-3.31,7.39-4.95a.89.89,0,0,1,1.25.21.88.88,0,0,1-.21,1.24c-2.31,1.66-4.82,3.35-7.48,5A.89.89,0,0,1,281.45,199.44ZM74,191.17a.89.89,0,0,1-.41-1.69c2.58-1.33,5.29-2.66,8-4a.91.91,0,0,1,1.2.42.89.89,0,0,1-.43,1.19c-2.75,1.31-5.44,2.63-8,3.95A1,1,0,0,1,74,191.17Zm222-2.21a.86.86,0,0,1-.67-.32.89.89,0,0,1,.09-1.26c.9-.76,1.75-1.53,2.55-2.28,1.38-1.3,2.65-2.6,3.77-3.87a.9.9,0,1,1,1.34,1.19c-1.16,1.3-2.46,2.64-3.88,4-.82.77-1.7,1.56-2.61,2.34A.94.94,0,0,1,295.93,189Zm11.51-13.56a.93.93,0,0,1-.4-.09.9.9,0,0,1-.4-1.2,21.6,21.6,0,0,0,1.06-2.55,14.74,14.74,0,0,0,.87-4.83q0-.39,0-.78a.9.9,0,0,1,1.79-.12q0,.45,0,.9a16.64,16.64,0,0,1-1,5.41,21.9,21.9,0,0,1-1.15,2.76A.89.89,0,0,1,307.44,175.4ZM306.06,159a.91.91,0,0,1-.67-.3,22.47,22.47,0,0,0-6.89-5.05.89.89,0,0,1,.8-1.6,24.36,24.36,0,0,1,7.44,5.47.9.9,0,0,1-.09,1.26A.88.88,0,0,1,306.06,159Zm-15.51-8.43a1.09,1.09,0,0,1-.25,0,79.82,79.82,0,0,0-8.63-1.94.9.9,0,0,1,.31-1.77,84.47,84.47,0,0,1,8.82,2,.9.9,0,0,1-.25,1.76ZM273,147.39h-.09c-2.81-.28-5.8-.49-8.87-.62a.89.89,0,0,1-.86-.93.92.92,0,0,1,.93-.86c3.11.14,6.13.35,9,.63a.89.89,0,0,1-.09,1.78Zm-26.81-.65a.9.9,0,0,1,0-1.79c3-.11,6-.16,8.84-.16h.14a.9.9,0,0,1,0,1.79H255c-2.83,0-5.78,0-8.77.16Z" style="fill:#fff"></path><path d="M40.1,201.91a10.27,10.27,0,1,1-7.93,12.17A10.28,10.28,0,0,1,40.1,201.91Z" style="fill:#FFC100"></path><path d="M40.1,201.91a10.27,10.27,0,1,1-7.93,12.17A10.28,10.28,0,0,1,40.1,201.91Z" style="fill:#fff;opacity:0.2"></path><path d="M48.68,214.1c-1.58,5.17-6.9,7.56-12,6.48a10.27,10.27,0,1,0,7.7-18.67C47.06,202.75,50.36,208.61,48.68,214.1Z" style="fill:#fff;opacity:0.15"></path><circle cx="227.07" cy="103.86" r="10.27" transform="translate(44.22 273.9) rotate(-67.5)" style="fill:#FFC100"></circle><circle cx="227.07" cy="103.86" r="10.27" transform="translate(44.22 273.9) rotate(-67.5)" style="fill:#fff;opacity:0.5"></circle><path d="M223.64,109.74c-4.73-2.61-6-8.31-3.85-13.12A10.27,10.27,0,1,0,236.47,108C235.08,110.5,228.66,112.52,223.64,109.74Z" style="fill:#fff;opacity:0.35000000000000003"></path><path d="M290.79,248a10.27,10.27,0,1,1,.64-14.51A10.27,10.27,0,0,1,290.79,248Z" style="fill:#FFC100"></path><path d="M290.79,248a10.27,10.27,0,1,1,.64-14.51A10.27,10.27,0,0,1,290.79,248Z" style="fill:#fff;opacity:0.5"></path><path d="M277.2,241.85c-1.27-5.25,2.1-10,7.08-11.7a10.27,10.27,0,1,0,2.86,20C284.37,250.8,278.54,247.43,277.2,241.85Z" style="fill:#fff;opacity:0.35000000000000003"></path></g></g></svg>